<?xml version="1.0" encoding="utf-8"?>
<!-- Generator: Adobe Illustrator 22.1.0, SVG Export Plug-In . SVG Version: 6.00 Build 0)  -->
<svg version="1.1" id="图层_1" xmlns="http://www.w3.org/2000/svg" xmlns:xlink="http://www.w3.org/1999/xlink" x="0px" y="0px"
	 viewBox="0 0 20 20" style="enable-background:new 0 0 20 20;" xml:space="preserve">
<style type="text/css">
	.st0{fill:#ABC8D6;}
</style>
<g>
	<polygon class="st0" points="14.4,6.3 13.3,6.3 13.3,10.8 18,10.8 18,9.6 14.4,9.6 	"/>
	<path class="st0" d="M19.2,8.3l-1.7-3.1l-0.1-0.2c-0.3-0.4-0.7-0.9-1.5-0.9h-2.1V3.4c0-0.8-0.6-1.4-1.4-1.4H1.5
		c-0.8,0-1.4,0.6-1.4,1.4V14c0,0.8,0.6,1.4,1.4,1.4h1.2c0.1,1.6,1.4,2.9,3.1,2.9s3-1.3,3.1-2.9H12c0.1,1.6,1.4,2.9,3.1,2.9
		c1.6,0,3-1.3,3.1-2.9h0.4c0.4,0,0.7-0.1,1-0.4c0.3-0.3,0.4-0.6,0.4-1v-3.8C19.9,9.3,19.3,8.5,19.2,8.3z M5.7,17.1
		c-1.1,0-1.9-0.9-1.9-1.9c0-1.1,0.9-1.9,1.9-1.9c1.1,0,1.9,0.9,1.9,1.9C7.7,16.2,6.8,17.1,5.7,17.1z M15,17.1
		c-1.1,0-1.9-0.9-1.9-1.9c0-1.1,0.9-1.9,1.9-1.9c1.1,0,1.9,0.9,1.9,1.9C17,16.2,16.1,17.1,15,17.1z M18.7,14c0,0,0,0.1-0.1,0.1
		c0,0-0.1,0.1-0.1,0.1h-0.3c-0.4-1.4-1.7-2.4-3.2-2.4c-1.5,0-2.8,1-3.2,2.4H8.9c-0.4-1.4-1.7-2.4-3.2-2.4c-1.5,0-2.8,1-3.2,2.4H1.5
		c-0.1,0-0.2-0.1-0.2-0.2V3.4c0-0.1,0.1-0.2,0.2-0.2h10.8c0.1,0,0.2,0.1,0.2,0.2v1.9h3.3c0.2,0,0.3,0.1,0.6,0.4l0.1,0.1l1.7,3l0,0
		c0.1,0.2,0.5,0.8,0.5,1.2V14z"/>
</g>
</svg>
