<?xml version="1.0" encoding="utf-8"?>
<!-- Generator: Adobe Illustrator 22.1.0, SVG Export Plug-In . SVG Version: 6.00 Build 0)  -->
<svg version="1.1" id="图层_1" xmlns="http://www.w3.org/2000/svg" xmlns:xlink="http://www.w3.org/1999/xlink" x="0px" y="0px"
	 viewBox="0 0 20 20" style="enable-background:new 0 0 20 20;" xml:space="preserve">
<style type="text/css">
	.st0{fill:#ABC8D6;}
</style>
<path class="st0" d="M15.8,19.4H4.2c-1,0-1.7-0.8-1.7-1.7V11H1.8c-0.7,0-1.3-0.4-1.5-1C0,9.4,0.2,8.6,0.7,8.2l0,0l8.2-6.7
	c0.6-0.6,1.6-0.6,2.3,0l8.2,6.7l0,0c0.5,0.5,0.6,1.2,0.4,1.8c-0.3,0.6-0.8,1-1.5,1h-0.7v6.7C17.5,18.6,16.7,19.4,15.8,19.4z M1.5,9
	C1.3,9.2,1.3,9.5,1.4,9.5c0,0.1,0.1,0.3,0.4,0.3h1.9v7.8c0,0.3,0.2,0.6,0.6,0.6h11.5c0.3,0,0.6-0.2,0.6-0.6V9.8h1.9
	c0.3,0,0.4-0.2,0.4-0.3c0-0.1,0.1-0.3-0.1-0.5l-8.2-6.7l0,0c-0.2-0.2-0.5-0.2-0.7,0l0,0L1.5,9z M11.1,16.5H8.8
	c-0.5,0-0.9-0.4-0.9-0.9v-4c0-0.5,0.4-0.9,0.9-0.9h2.3c0.5,0,0.9,0.4,0.9,0.9v4C12.1,16.1,11.7,16.5,11.1,16.5z M9.1,15.3h1.8v-3.5
	H9.1V15.3z"/>
</svg>
