<?xml version="1.0" encoding="utf-8"?>
<!-- Generator: Adobe Illustrator 22.1.0, SVG Export Plug-In . SVG Version: 6.00 Build 0)  -->
<svg version="1.1" id="图层_1" xmlns="http://www.w3.org/2000/svg" xmlns:xlink="http://www.w3.org/1999/xlink" x="0px" y="0px"
	 viewBox="0 0 20 20" style="enable-background:new 0 0 20 20;" xml:space="preserve">
<style type="text/css">
	.st0{fill:#ABC8D6;}
</style>
<path class="st0" d="M11.9,10.9c1.8-0.8,3-2.6,3-4.7c0,0,0,0,0,0c0-2.8-2.3-5.1-5.1-5.1C7,1,4.7,3.3,4.7,6.2c0,2.1,1.3,3.9,3.1,4.7
	c-3.5,0.2-6.3,3-6.3,6.4v0.4c0,1.6,2.9,1.6,6.6,1.6h3.8c1.4,0,2.9,0,4.1-0.1c0.7-0.1,2.5-0.3,2.5-1.5v-0.4
	C18.5,13.7,15.6,10.9,11.9,10.9z M5.8,6.2c0-2.2,1.8-4,4-4c2.2,0,4,1.8,4,4c0,2.2-1.8,4-4,4C7.6,10.2,5.8,8.4,5.8,6.2z M17.4,17.6
	c-0.1,0.1-0.4,0.3-1.8,0.4c-1.1,0.1-2.4,0.1-3.6,0.1H8.1c-1.3,0-2.6,0-3.7-0.1c-1.4-0.1-1.7-0.3-1.7-0.4v-0.4c0-2.9,2.4-5.3,5.5-5.3
	h3.8c3,0,5.5,2.4,5.5,5.3V17.6z"/>
</svg>
