<?xml version="1.0" standalone="no"?><!DOCTYPE svg PUBLIC "-//W3C//DTD SVG 1.1//EN" "http://www.w3.org/Graphics/SVG/1.1/DTD/svg11.dtd"><svg t="1567840621901" class="icon" viewBox="0 0 1024 1024" version="1.1" xmlns="http://www.w3.org/2000/svg" p-id="3705" xmlns:xlink="http://www.w3.org/1999/xlink" width="128" height="128"><defs><style type="text/css"></style></defs><path d="M1004.373333 552.96L853.333333 341.902222a28.728889 28.728889 0 0 0-23.04-11.946666h-110.08V96.995556c0-15.644444-12.8-28.444444-28.444444-28.444445H42.666667c-15.644444 0-28.444444 12.8-28.444445 28.444445v674.702222c0 15.644444 12.8 28.444444 28.444445 28.444444h136.817777c-1.991111 8.817778-3.128889 17.92-3.128888 27.591111 0 70.542222 57.457778 128 128 128s128-57.457778 128-128c0-9.386667-1.137778-18.488889-3.128889-27.591111h272.782222c-1.991111 8.817778-3.128889 17.92-3.128889 27.591111 0 70.542222 57.457778 128 128 128s128-57.457778 128-128c0-9.386667-1.137778-18.488889-3.128889-27.591111h29.866667c15.644444 0 28.444444-12.8 28.444444-28.444444v-202.24c-0.284444-5.973333-2.275556-11.662222-5.688889-16.497778z m-629.191111 274.488889a71.111111 71.111111 0 0 1-142.222222 0c0-9.671111 1.991111-19.057778 5.688889-27.591111 10.808889-25.6 36.124444-43.52 65.422222-43.52s54.613333 17.92 65.422222 43.52c3.982222 8.533333 5.688889 17.92 5.688889 27.591111z m24.462222-84.195556c-23.324444-26.453333-57.457778-43.52-95.288888-43.52s-71.964444 17.066667-95.288889 43.52H71.111111V125.44h592.213333v617.813333h-263.68z m498.062223 84.195556a71.111111 71.111111 0 0 1-142.222223 0c0-9.671111 1.991111-19.057778 5.688889-27.591111a71.111111 71.111111 0 0 1 65.422223-43.52 71.111111 71.111111 0 0 1 65.422222 43.52c3.697778 8.533333 5.688889 17.92 5.688889 27.591111z m55.182222-84.195556h-31.004445c-23.324444-26.453333-57.457778-43.52-95.288888-43.52s-71.964444 17.066667-95.288889 43.52h-10.808889V386.844444h95.573333l137.102222 191.715556v164.693333z" fill="#e6e6e6" p-id="3706"></path></svg>